<svg xmlns="http://www.w3.org/2000/svg" width="23.35" height="22.671" viewBox="0 0 23.35 22.671">
  <g id="github-logo" transform="translate(0 -5.365)">
    <path id="Path_5" data-name="Path 5" d="M21.784,11.152a11.6,11.6,0,0,0-4.249-4.229,11.461,11.461,0,0,0-5.86-1.558,11.462,11.462,0,0,0-5.86,1.558,11.6,11.6,0,0,0-4.249,4.229A11.325,11.325,0,0,0,0,16.985a11.257,11.257,0,0,0,2.227,6.831,11.431,11.431,0,0,0,5.754,4.2.683.683,0,0,0,.608-.106.59.59,0,0,0,.2-.454q0-.045-.008-.817t-.008-1.346l-.35.06a4.481,4.481,0,0,1-.844.053A6.457,6.457,0,0,1,6.521,25.3,2.366,2.366,0,0,1,5.5,24.845a1.92,1.92,0,0,1-.669-.93l-.152-.348a3.777,3.777,0,0,0-.479-.772,1.832,1.832,0,0,0-.661-.575l-.106-.076a1.114,1.114,0,0,1-.2-.182.829.829,0,0,1-.137-.212q-.046-.106.076-.174a.99.99,0,0,1,.441-.068l.3.045a2.224,2.224,0,0,1,.752.363,2.447,2.447,0,0,1,.737.787,2.671,2.671,0,0,0,.844.946,1.8,1.8,0,0,0,1,.325,4.343,4.343,0,0,0,.866-.075,3.033,3.033,0,0,0,.684-.227,2.447,2.447,0,0,1,.745-1.559,10.454,10.454,0,0,1-1.558-.272,6.22,6.22,0,0,1-1.429-.59,4.088,4.088,0,0,1-1.224-1.014,4.863,4.863,0,0,1-.8-1.589,7.522,7.522,0,0,1-.312-2.269,4.4,4.4,0,0,1,1.2-3.117,4.05,4.05,0,0,1,.106-3.086,2.139,2.139,0,0,1,1.307.2,9.16,9.16,0,0,1,1.269.583q.4.242.646.408a11.029,11.029,0,0,1,5.838,0l.578-.363a8.2,8.2,0,0,1,1.4-.666,2,2,0,0,1,1.232-.166,4.011,4.011,0,0,1,.121,3.086,4.4,4.4,0,0,1,1.2,3.117,7.606,7.606,0,0,1-.312,2.277,4.674,4.674,0,0,1-.805,1.589,4.246,4.246,0,0,1-1.232,1.006,6.232,6.232,0,0,1-1.429.59,10.443,10.443,0,0,1-1.558.273,2.688,2.688,0,0,1,.79,2.148v3.192a.6.6,0,0,0,.19.454.663.663,0,0,0,.6.106,11.429,11.429,0,0,0,5.754-4.2,11.259,11.259,0,0,0,2.227-6.831A11.334,11.334,0,0,0,21.784,11.152Z" fill="#69b1ca"/>
  </g>
</svg>
